Coordinates
version=1
nRows=12
nColumns=34
inDegrees=yes

Units are S.I. units (second, meters, Newtons, ...)
If the header above contains a line with 'inDegrees', this indicates whether rotational values are in degrees (yes) or radians (no).

endheader
time	pelvis_tilt	pelvis_list	pelvis_rotation	pelvis_tx	pelvis_ty	pelvis_tz	hip_flexion_r	hip_adduction_r	hip_rotation_r	knee_angle_r	ankle_angle_r	subtalar_angle_r	mtp_angle_r	hip_flexion_l	hip_adduction_l	hip_rotation_l	knee_angle_l	ankle_angle_l	subtalar_angle_l	mtp_angle_l	lumbar_extension	lumbar_bending	lumbar_rotation	arm_flex_r	arm_add_r	arm_rot_r	elbow_flex_r	pro_sup_r	arm_flex_l	arm_add_l	arm_rot_l	elbow_flex_l	pro_sup_l
      2.75000000	     -2.71623332	     -4.47983585	    -65.20772878	      0.13771043	      1.00958542	     -0.08732751	    -11.00405487	     -3.68242890	      4.94847779	      7.90759000	     12.17971201	     -0.56905274	      0.00000000	    -11.93364826	     -6.17182482	      0.63324801	      2.69584102	      9.83468750	     -2.06867284	      0.00000000	    -12.93304518	      4.44510536	     -0.12394908	      7.36551385	     -3.90406907	     -0.27894918	     20.63476801	    116.01606502	      8.82587026	     -4.79499719	     10.52734709	     19.49046072	    109.67613249
      2.76666670	     -2.71835869	     -4.48253469	    -65.20715217	      0.13770483	      1.00956772	     -0.08732025	    -11.00294594	     -3.68344260	      4.94825748	      7.90683929	     12.17988711	     -0.56928856	      0.00000000	    -11.93432267	     -6.17013407	      0.63317890	      2.69542533	      9.83521262	     -2.06865476	      0.00000000	    -12.93212514	      4.44454699	     -0.12417656	      7.36513837	     -3.90472136	     -0.27892610	     20.63432611	    116.01607505	      8.82564219	     -4.79483161	     10.52733374	     19.48982990	    109.67615734
      2.78333330	     -2.71901859	     -4.48729665	    -65.20791551	      0.13777734	      1.00951752	     -0.08733690	    -11.00217527	     -3.68387711	      4.94797258	      7.90616107	     12.18005437	     -0.56951100	      0.00000000	    -11.93333949	     -6.16901008	      0.63313099	      2.69419832	      9.83574526	     -2.06863534	      0.00000000	    -12.93042475	      4.44343168	     -0.12461632	      7.36471076	     -3.90528998	     -0.27888094	     20.63392194	    116.01609019	      8.82570896	     -4.79504223	     10.52726497	     19.48918693	    109.67617372
      2.80000000	     -2.72068851	     -4.49997650	    -65.21374122	      0.13780683	      1.00952693	     -0.08752420	    -11.00519179	     -3.68890570	      4.94572346	      7.90500543	     12.18109939	     -0.57110997	      0.00000000	    -11.93396436	     -6.16444565	      0.63230552	      2.68994780	      9.83905335	     -2.06892742	      0.00000000	    -12.91689435	      4.44364778	     -0.12873141	      7.36123203	     -3.90897532	     -0.27849726	     20.63124289	    116.01621284	      8.82833082	     -4.79736739	     10.52658475	     19.48533977	    109.67623978
      2.81666670	     -2.71858906	     -4.50499581	    -65.21491318	      0.13778800	      1.00948118	     -0.08752132	    -11.00444438	     -3.69028836	      4.94534241	      7.90398783	     12.18129038	     -0.57137662	      0.00000000	    -11.93299862	     -6.16396094	      0.63214388	      2.68869065	      9.83955731	     -2.06896863	      0.00000000	    -12.91391867	      4.44476296	     -0.12951286	      7.36046850	     -3.90937830	     -0.27838872	     20.63074798	    116.01624159	      8.82899255	     -4.79804128	     10.52641346	     19.48467478	    109.67624163
      2.83333330	     -2.71013921	     -4.51393436	    -65.25220013	      0.13795567	      1.00947927	     -0.08751125	    -11.02721817	     -3.72134391	      4.93057078	      7.88844270	     12.18699708	     -0.57908634	      0.00000000	    -11.96658890	     -6.14318989	      0.62322455	      2.68032445	      9.85338383	     -2.07132479	      0.00000000	    -12.84268679	      4.48184221	     -0.15725393	      7.33621034	     -3.91650770	     -0.27412630	     20.61388887	    116.01732682	      8.85432879	     -4.82391819	     10.52004398	     19.46164202	    109.67618047
      2.85000000	     -2.71152967	     -4.52362023	    -65.25325120	      0.13797704	      1.00947022	     -0.08759537	    -11.02738584	     -3.72462675	      4.92933295	      7.88494873	     12.18767393	     -0.57953943	      0.00000000	    -11.96369245	     -6.14133084	      0.62212190	      2.67570246	      9.85479016	     -2.07155096	      0.00000000	    -12.83845292	      4.47994940	     -0.15799998	      7.33361269	     -3.91723855	     -0.27372911	     20.61199240	    116.01743295	      8.85090768	     -4.82407831	     10.51988182	     19.45758839	    109.67623685
      2.86666670	     -2.71077643	     -4.52345115	    -65.25469429	      0.13804076	      1.00946400	     -0.08766312	    -11.02855117	     -3.72508770	      4.92895187	      7.88452821	     12.18782355	     -0.57965353	      0.00000000	    -11.96355881	     -6.14218040	      0.62181504	      2.67491214	      9.85506768	     -2.07165164	      0.00000000	    -12.83737343	      4.47989595	     -0.15842357	      7.33276603	     -3.91715733	     -0.27361877	     20.61144955	    116.01745914	      8.85055546	     -4.82444562	     10.51978315	     19.45675927	    109.67624093
      2.88333330	     -2.68479632	     -4.45379046	    -65.33783702	      0.13893935	      1.00915759	     -0.08663532	    -11.24425390	     -3.85293788	      4.80450869	      7.50453018	     12.23677170	     -0.57605449	      0.00000000	    -12.12950689	     -6.02181798	      0.47971393	      2.44245453	      9.95337299	     -2.09258242	      0.00000000	    -12.50268234	      4.48903842	     -0.23375629	      7.16250733	     -3.97710622	     -0.24105902	     20.41530704	    116.02643356	      8.62985169	     -4.76458082	     10.50261344	     19.11147282	    109.68320168
      2.90000000	     -2.68449754	     -4.45363428	    -65.33847503	      0.13901379	      1.00916980	     -0.08661958	    -11.24437824	     -3.85235940	      4.80480496	      7.50412056	     12.23660488	     -0.57562050	      0.00000000	    -12.12897211	     -6.02167637	      0.47980452	      2.44182281	      9.95317288	     -2.09225980	      0.00000000	    -12.50312577	      4.48902589	     -0.23417203	      7.16200225	     -3.97630082	     -0.24084352	     20.41499062	    116.02647610	      8.63094994	     -4.76456546	     10.50254700	     19.11162273	    109.68321645
      2.91666670	     -2.69094920	     -4.44565791	    -65.35515949	      0.13909380	      1.00914793	     -0.08666062	    -11.24883409	     -3.86269528	      4.81383190	      7.48519111	     12.23199172	     -0.56255912	      0.00000000	    -12.13068978	     -6.00778263	      0.48327574	      2.43230777	      9.94503152	     -2.08041277	      0.00000000	    -12.51344884	      4.51304610	     -0.25667122	      7.12894200	     -3.95523845	     -0.23492778	     20.39569224	    116.02758993	      8.67464462	     -4.76456054	     10.49951158	     19.11995146	    109.68360973
      2.93333330	     -2.69126291	     -4.44446143	    -65.35554444	      0.13915262	      1.00916220	     -0.08659162	    -11.24980533	     -3.86316313	      4.81406756	      7.48497852	     12.23184783	     -0.56218246	      0.00000000	    -12.12996073	     -6.00828400	      0.48338876	      2.43167953	      9.94479397	     -2.08008563	      0.00000000	    -12.51434753	      4.51319256	     -0.25676173	      7.12881104	     -3.95503353	     -0.23482984	     20.39529620	    116.02760955	      8.67576594	     -4.76466341	     10.49938868	     19.12011204	    109.68361431
